# xmcd
#
# Track frame offsets: 
#        150
#        28659
#        59007
#        84128
#        109018
#        128463
#        142265
#        158717
#        178788
#        199043
#        214422
#        232571
#        256973
#        269593
#        287598
#        310867
#        328786
#
# Disc length: 4777 seconds
#
# Revision: 1
# Processed by: cddbd v1.5.2PL0 Copyright (c) Steve Scherf et al.
# Submitted via: ExactAudioCopy v1.0b3
#
DISCID=f312a711
DTITLE=Varios Artists - La Salsa De Los Grandes
DYEAR=2012
DGENRE=Salsa
TTITLE0=Varios - Quitate Tu
TTITLE1=Danny Frank - El Gran Baron
TTITLE2=Diego Moran - La Murga 
TTITLE3=Alvaro Granobles - Los Fariseos
TTITLE4=Saulo Sanchez - Rompe Saraguey 
TTITLE5=Raquel Zozaya - El Yerberito Moderno 
TTITLE6=Marlon Betancur - Che Che Cole 
TTITLE7=Daniel Silva - Fuego En El 23 
TTITLE8=Luis Flores - Anacaona 
TTITLE9=Carlos Brito - Tu Loco Loco Yo Tranquilo 
TTITLE10=Jairo Andrade - El Raton 
TTITLE11=Diego Moran - Hacha Y Machete 
TTITLE12=Arnold Moreno - Acuyuye 
TTITLE13=Luis Flores - La Escencia Del Guaguanco 
TTITLE14=Daniel Silva - Asi Se Compone Un Son 
TTITLE15=Raquel Zozaya - Bemba Colora 
TTITLE16=Saulo Sanchez - Juanito Alimana 
EXTD=YEAR: 2012
EXTT0=
EXTT1=
EXTT2=
EXTT3=
EXTT4=
EXTT5=
EXTT6=
EXTT7=
EXTT8=
EXTT9=
EXTT10=
EXTT11=
EXTT12=
EXTT13=
EXTT14=
EXTT15=
EXTT16=
PLAYORDER=
